<svg width="160" height="160" viewBox="0 0 160 160" fill="none" xmlns="http://www.w3.org/2000/svg">
<rect x="4" y="4" width="152" height="152" rx="20.427" stroke="#F9F9FC" stroke-width="8"/>
<path d="M127.858 14.769C129.217 14.769 130.32 15.871 130.32 17.231V29.539H142.559C143.956 29.539 145.089 30.641 145.089 32V36.923C145.089 38.283 143.956 39.384 142.559 39.384H130.32V51.692C130.32 53.051 129.217 54.154 127.858 54.154H122.935C121.575 54.154 120.474 53.051 120.474 51.692V39.384H107.145C105.748 39.384 104.616 38.283 104.615 36.923V32C104.615 30.641 105.748 29.539 107.145 29.539H120.474V17.231C120.474 15.872 121.575 14.769 122.935 14.769H127.858Z" fill="#F9F9FC"/>
</svg>
