<svg width="443" height="160" viewBox="0 0 443 160" fill="none" xmlns="http://www.w3.org/2000/svg">
<path d="M41.9 10.012C60.5 10.012 74.072 13.717 82.617 21.126C91.161 28.535 95.433 38.914 95.433 52.264C95.433 58.331 94.447 64.112 92.476 69.605C90.57 75.034 87.415 79.856 83.011 84.072C78.608 88.224 72.791 91.513 65.561 93.94C58.397 96.367 49.557 97.581 39.041 97.581H23.661V150.084H0V10.012H41.9ZM40.323 29.078H23.661V78.419H36.576C44.003 78.419 50.313 77.589 55.505 75.928C60.697 74.204 64.641 71.489 67.336 67.784C70.03 64.08 71.378 59.194 71.378 53.126C71.378 45.014 68.847 38.978 63.787 35.018C58.791 31.058 50.97 29.078 40.323 29.078Z" fill="#F9F9FC"/>
<path d="M116.144 150.084V10.012H139.806V130.539H201.028V150.084H116.144Z" fill="#F9F9FC"/>
<path d="M331.074 10.012V100.647C331.074 110.419 328.938 119.17 324.665 126.898C320.459 134.627 314.084 140.758 305.539 145.293C296.995 149.764 286.249 152 273.301 152C254.832 152 240.767 147.305 231.106 137.916C221.51 128.463 216.712 115.912 216.712 100.263V10.012H240.373V98.251C240.373 109.94 243.199 118.563 248.851 124.12C254.504 129.677 262.949 132.455 274.188 132.455C281.944 132.455 288.254 131.146 293.117 128.527C298.047 125.844 301.662 121.948 303.962 116.838C306.328 111.665 307.511 105.437 307.511 98.156V10.012H331.074Z" fill="#F9F9FC"/>
<path d="M443.077 111.952C443.077 120.255 440.972 127.409 436.768 133.413C432.63 139.417 426.649 144.016 418.825 147.21C411.066 150.403 401.8 152 391.022 152C385.764 152 380.737 151.713 375.942 151.138C371.147 150.563 366.614 149.733 362.335 148.647C358.126 147.497 354.282 146.124 350.799 144.527V122.874C356.65 125.365 363.192 127.633 370.422 129.677C377.653 131.657 385.014 132.647 392.506 132.647C398.619 132.647 403.679 131.88 407.687 130.347C411.76 128.75 414.784 126.515 416.755 123.641C418.726 120.703 419.712 117.285 419.712 113.389C419.712 109.238 418.562 105.725 416.262 102.85C413.962 99.976 410.478 97.357 405.812 94.994C401.212 92.567 395.429 89.98 388.461 87.234C383.732 85.381 379.199 83.273 374.854 80.91C370.579 78.547 366.768 75.768 363.418 72.575C360.067 69.381 357.405 65.613 355.434 61.27C353.528 56.862 352.575 51.689 352.575 45.749C352.575 37.828 354.513 31.058 358.388 25.437C362.335 19.816 367.855 15.505 374.952 12.503C382.117 9.501 390.458 8 399.989 8C407.548 8 414.644 8.767 421.285 10.299C427.992 11.832 434.568 14.004 441.008 16.814L433.509 35.305C427.599 32.942 421.853 31.058 416.262 29.653C410.737 28.248 405.081 27.545 399.298 27.545C394.305 27.545 390.065 28.279 386.585 29.749C383.103 31.218 380.442 33.293 378.603 35.976C376.832 38.595 375.942 41.725 375.942 45.365C375.942 49.453 376.964 52.902 379.001 55.713C381.103 58.459 384.322 60.982 388.661 63.281C393.065 65.581 398.717 68.136 405.614 70.946C413.569 74.14 420.307 77.493 425.828 81.006C431.413 84.519 435.685 88.735 438.641 93.653C441.598 98.507 443.077 104.607 443.077 111.952Z" fill="#F9F9FC"/>
</svg>
