<svg width="160" height="160" viewBox="0 0 160 160" fill="none" xmlns="http://www.w3.org/2000/svg">
<path d="M143.573 0C152.645 0 160 7.355 160 16.427V143.573C160 152.645 152.645 160 143.573 160H16.427C7.355 160 0 152.645 0 143.573V16.427C0 7.355 7.355 0 16.427 0H143.573ZM122.935 14.77C121.575 14.77 120.474 15.872 120.474 17.231V29.539H107.145C105.748 29.539 104.615 30.642 104.615 32.001V36.924C104.616 38.283 105.748 39.384 107.145 39.385H120.474V51.692C120.474 53.051 121.576 54.154 122.935 54.154H127.857C129.217 54.154 130.319 53.052 130.319 51.692V39.385H142.559C143.955 39.385 145.089 38.283 145.089 36.924V32.001C145.089 30.642 143.956 29.539 142.559 29.539H130.319V17.231C130.319 15.872 129.217 14.77 127.857 14.77H122.935Z" fill="#F9F9FC"/>
</svg>
