<svg width="1124" height="826" viewBox="0 0 1124 826" fill="none" xmlns="http://www.w3.org/2000/svg">
<g clip-path="url(#clip0_11_325)">
<rect x="32" y="32" width="160" height="160" rx="16" fill="#F9F9FC" fill-opacity="0.08"/>
<g filter="url(#filter0_f_11_325)">
<path d="M155.884 124.494C179.806 148.416 179.806 187.2 155.884 211.121C131.963 235.043 93.1788 235.043 69.2576 211.121C45.336 187.2 45.336 148.416 69.2576 124.494C93.1788 100.573 131.963 100.573 155.884 124.494Z" fill="#FFDEA0"/>
</g>
<g filter="url(#filter1_f_11_325)">
<path d="M155.884 124.494C179.806 148.416 179.806 187.2 155.884 211.121C131.963 235.043 93.1788 235.043 69.2576 211.121C45.336 187.2 45.336 148.416 69.2576 124.494C93.1788 100.573 131.963 100.573 155.884 124.494Z" fill="#FFE17A"/>
</g>
<g filter="url(#filter2_f_11_325)">
<path d="M109.863 -0.889168C138.618 27.8659 138.618 74.487 109.863 103.242C81.108 131.997 34.4868 131.997 5.73181 103.242C-23.0232 74.487 -23.0232 27.8658 5.73181 -0.889204C34.4868 -29.6444 81.108 -29.6444 109.863 -0.889168Z" fill="#FFE17A"/>
</g>
<g filter="url(#filter3_f_11_325)">
<path d="M230.041 222.08C256.931 195.19 256.931 151.593 230.041 124.703C203.151 97.8129 159.554 97.8129 132.664 124.703C105.775 151.593 105.775 195.19 132.664 222.08C159.554 248.969 203.151 248.969 230.041 222.08Z" fill="#B3F1BF"/>
</g>
<g filter="url(#filter4_f_11_325)">
<path d="M123.685 103.427C156.015 135.757 156.015 188.174 123.685 220.504C91.3547 252.835 38.9372 252.835 6.60734 220.504C-25.7226 188.174 -25.7226 135.757 6.60734 103.427C38.9372 71.097 91.3547 71.097 123.685 103.427Z" fill="#FFD9E4"/>
</g>
<g filter="url(#filter5_f_11_325)">
<path d="M231.938 88.6532C261.315 59.2764 261.189 11.5212 231.656 -18.011C202.124 -47.5433 154.369 -47.6693 124.992 -18.2926C95.6154 11.0842 95.7414 58.8394 125.274 88.3717C154.806 117.904 202.561 118.03 231.938 88.6532Z" fill="#84CFFF"/>
</g>
<path d="M158.5 48C159.881 48 161 49.1193 161 50.5V63H173.5C174.881 63 176 64.1193 176 65.5V70.5C176 71.8807 174.881 73 173.5 73H161V85.5C161 86.8807 159.881 88 158.5 88H153.5C152.119 88 151 86.8807 151 85.5V73H138.5C137.119 73 136 71.8807 136 70.5V65.5C136 64.1193 137.119 63 138.5 63H151V50.5C151 49.1193 152.119 48 153.5 48H158.5Z" fill="#F9F9FC"/>
</g>
<g clip-path="url(#clip1_11_325)">
<rect x="456" y="32" width="160" height="160" rx="16" fill="#F9F9FC" fill-opacity="0.08"/>
<g filter="url(#filter6_f_11_325)">
<path d="M579.885 124.494C603.806 148.416 603.806 187.2 579.885 211.121C555.964 235.043 517.179 235.043 493.258 211.121C469.336 187.2 469.336 148.416 493.258 124.494C517.179 100.573 555.964 100.573 579.885 124.494Z" fill="#FFDEA0"/>
</g>
<g filter="url(#filter7_f_11_325)">
<path d="M579.885 124.494C603.806 148.416 603.806 187.2 579.885 211.121C555.964 235.043 517.179 235.043 493.258 211.121C469.336 187.2 469.336 148.416 493.258 124.494C517.179 100.573 555.964 100.573 579.885 124.494Z" fill="#FFE17A"/>
</g>
<g filter="url(#filter8_f_11_325)">
<path d="M533.863 -0.889168C562.618 27.8659 562.618 74.487 533.863 103.242C505.108 131.997 458.487 131.997 429.732 103.242C400.977 74.487 400.977 27.8658 429.732 -0.889204C458.487 -29.6444 505.108 -29.6444 533.863 -0.889168Z" fill="#FFE17A"/>
</g>
<g filter="url(#filter9_f_11_325)">
<path d="M654.041 222.08C680.931 195.19 680.931 151.593 654.041 124.703C627.152 97.8129 583.555 97.8129 556.665 124.703C529.775 151.593 529.775 195.19 556.665 222.08C583.555 248.969 627.152 248.969 654.041 222.08Z" fill="#B3F1BF"/>
</g>
<g filter="url(#filter10_f_11_325)">
<path d="M547.685 103.427C580.015 135.757 580.015 188.174 547.685 220.504C515.355 252.835 462.937 252.835 430.608 220.504C398.278 188.174 398.278 135.757 430.608 103.427C462.937 71.097 515.355 71.097 547.685 103.427Z" fill="#FFD9E4"/>
</g>
<g filter="url(#filter11_f_11_325)">
<path d="M655.938 88.6532C685.315 59.2764 685.189 11.5212 655.657 -18.011C626.124 -47.5433 578.369 -47.6693 548.992 -18.2926C519.616 11.0842 519.742 58.8394 549.274 88.3717C578.806 117.904 626.561 118.03 655.938 88.6532Z" fill="#84CFFF"/>
</g>
<path d="M582.5 48C583.881 48 585 49.1193 585 50.5V63H597.5C598.881 63 600 64.1193 600 65.5V70.5C600 71.8807 598.881 73 597.5 73H585V85.5C585 86.8807 583.881 88 582.5 88H577.5C576.12 88 575 86.8807 575 85.5V73H562.5C561.12 73 560 71.8807 560 70.5V65.5C560 64.1193 561.12 63 562.5 63H575V50.5C575 49.1193 576.12 48 577.5 48H582.5Z" fill="#F9F9FC"/>
</g>
<g clip-path="url(#clip2_11_325)">
<path d="M689.9 42.012C708.5 42.012 722.072 45.7166 730.617 53.1257C739.161 60.5349 743.433 70.9142 743.433 84.2635C743.433 90.3313 742.447 96.1118 740.476 101.605C738.57 107.034 735.415 111.856 731.011 116.072C726.608 120.224 720.791 123.513 713.561 125.94C706.397 128.367 697.557 129.581 687.041 129.581H671.661V182.084H648V42.012H689.9ZM688.323 61.0778H671.661V110.419H684.576C692.003 110.419 698.313 109.589 703.505 107.928C708.697 106.204 712.641 103.489 715.336 99.7844C718.03 96.0798 719.378 91.1936 719.378 85.1257C719.378 77.014 716.847 70.978 711.787 67.018C706.791 63.0579 698.97 61.0778 688.323 61.0778Z" fill="#3F484A"/>
<path d="M764.144 182.084V42.012H787.806V162.539H849.028V182.084H764.144Z" fill="#3F484A"/>
<path d="M979.074 42.012V132.647C979.074 142.419 976.938 151.17 972.665 158.898C968.459 166.627 962.084 172.758 953.539 177.293C944.995 181.764 934.249 184 921.301 184C902.832 184 888.767 179.305 879.106 169.916C869.51 160.463 864.712 147.912 864.712 132.263V42.012H888.373V130.251C888.373 141.94 891.199 150.563 896.851 156.12C902.504 161.677 910.949 164.455 922.188 164.455C929.944 164.455 936.254 163.146 941.117 160.527C946.047 157.844 949.662 153.948 951.962 148.838C954.328 143.665 955.511 137.437 955.511 130.156V42.012H979.074Z" fill="#3F484A"/>
<path d="M1091.08 143.952C1091.08 152.255 1088.97 159.409 1084.77 165.413C1080.63 171.417 1074.65 176.016 1066.82 179.21C1059.07 182.403 1049.8 184 1039.02 184C1033.76 184 1028.74 183.713 1023.94 183.138C1019.14 182.563 1014.61 181.733 1010.33 180.647C1006.13 179.497 1002.28 178.124 998.799 176.527V154.874C1004.65 157.365 1011.19 159.633 1018.42 161.677C1025.65 163.657 1033.01 164.647 1040.5 164.647C1046.61 164.647 1051.67 163.88 1055.68 162.347C1059.76 160.75 1062.78 158.515 1064.75 155.641C1066.73 152.703 1067.71 149.285 1067.71 145.389C1067.71 141.238 1066.56 137.725 1064.26 134.85C1061.96 131.976 1058.48 129.357 1053.81 126.994C1049.21 124.567 1043.43 121.98 1036.46 119.234C1031.73 117.381 1027.19 115.273 1022.85 112.91C1018.58 110.547 1014.77 107.768 1011.42 104.575C1008.07 101.381 1005.4 97.6128 1003.43 93.2695C1001.53 88.8623 1000.57 83.6886 1000.57 77.7485C1000.57 69.8283 1002.51 63.0579 1006.39 57.4371C1010.33 51.8164 1015.85 47.505 1022.95 44.503C1030.12 41.501 1038.46 40 1047.99 40C1055.55 40 1062.65 40.7665 1069.29 42.2994C1075.99 43.8323 1082.57 46.004 1089.01 48.8144L1081.51 67.3054C1075.6 64.9421 1069.85 63.0579 1064.26 61.6527C1058.74 60.2475 1053.09 59.5449 1047.3 59.5449C1042.31 59.5449 1038.07 60.2794 1034.59 61.7485C1031.1 63.2176 1028.44 65.2934 1026.6 67.976C1024.83 70.5948 1023.94 73.7245 1023.94 77.3653C1023.94 81.4531 1024.96 84.9022 1027 87.7126C1029.1 90.4591 1032.32 92.982 1036.66 95.2814C1041.06 97.5808 1046.71 100.136 1053.61 102.946C1061.57 106.14 1068.3 109.493 1073.82 113.006C1079.41 116.519 1083.68 120.735 1086.64 125.653C1089.6 130.507 1091.08 136.607 1091.08 143.952Z" fill="#3F484A"/>
</g>
<path d="M175.573 333C184.645 333 192 340.355 192 349.427V476.573C192 485.645 184.645 493 175.573 493H48.4268C39.3546 493 32.0002 485.645 32 476.573V349.427C32.0002 340.355 39.3546 333 48.4268 333H175.573ZM154.935 347.77C153.575 347.77 152.474 348.872 152.474 350.231V362.539H139.145C137.748 362.539 136.615 363.642 136.615 365.001V369.924C136.616 371.283 137.748 372.384 139.145 372.385H152.474V384.692C152.474 386.051 153.576 387.154 154.935 387.154H159.857C161.217 387.154 162.319 386.052 162.319 384.692V372.385H174.559C175.955 372.385 177.089 371.283 177.089 369.924V365.001C177.089 363.642 175.956 362.539 174.559 362.539H162.319V350.231C162.319 348.872 161.217 347.77 159.857 347.77H154.935Z" fill="#F9F9FC"/>
<path d="M599.573 333C608.646 333 616 340.355 616 349.427V476.573C616 485.645 608.646 493 599.573 493H472.427C463.355 493 456 485.645 456 476.573V349.427C456 340.355 463.355 333 472.427 333H599.573ZM578.935 347.77C577.576 347.77 576.474 348.872 576.474 350.231V362.539H563.145C561.748 362.539 560.615 363.642 560.615 365.001V369.924C560.616 371.283 561.748 372.384 563.145 372.385H576.474V384.692C576.474 386.051 577.576 387.154 578.935 387.154H583.858C585.217 387.154 586.319 386.052 586.32 384.692V372.385H598.559C599.956 372.385 601.089 371.283 601.089 369.924V365.001C601.089 363.642 599.956 362.539 598.559 362.539H586.32V350.231C586.32 348.872 585.217 347.77 583.858 347.77H578.935Z" fill="#F9F9FC"/>
<g clip-path="url(#clip3_11_325)">
<path d="M689.9 343.012C708.5 343.012 722.072 346.717 730.617 354.126C739.161 361.535 743.433 371.914 743.433 385.263C743.433 391.331 742.447 397.112 740.476 402.605C738.57 408.034 735.415 412.856 731.011 417.072C726.608 421.224 720.791 424.513 713.561 426.94C706.397 429.367 697.557 430.581 687.041 430.581H671.661V483.084H648V343.012H689.9ZM688.323 362.078H671.661V411.419H684.576C692.003 411.419 698.313 410.589 703.505 408.928C708.697 407.204 712.641 404.489 715.336 400.784C718.03 397.08 719.378 392.194 719.378 386.126C719.378 378.014 716.847 371.978 711.787 368.018C706.791 364.058 698.97 362.078 688.323 362.078Z" fill="#F9F9FC"/>
<path d="M764.144 483.084V343.012H787.806V463.539H849.028V483.084H764.144Z" fill="#F9F9FC"/>
<path d="M979.074 343.012V433.647C979.074 443.419 976.938 452.17 972.665 459.898C968.459 467.627 962.084 473.758 953.539 478.293C944.995 482.764 934.249 485 921.301 485C902.832 485 888.767 480.305 879.106 470.916C869.51 461.463 864.712 448.912 864.712 433.263V343.012H888.373V431.251C888.373 442.94 891.199 451.563 896.851 457.12C902.504 462.677 910.949 465.455 922.188 465.455C929.944 465.455 936.254 464.146 941.117 461.527C946.047 458.844 949.662 454.948 951.962 449.838C954.328 444.665 955.511 438.437 955.511 431.156V343.012H979.074Z" fill="#F9F9FC"/>
<path d="M1091.08 444.952C1091.08 453.255 1088.97 460.409 1084.77 466.413C1080.63 472.417 1074.65 477.016 1066.82 480.21C1059.07 483.403 1049.8 485 1039.02 485C1033.76 485 1028.74 484.713 1023.94 484.138C1019.14 483.563 1014.61 482.733 1010.33 481.647C1006.13 480.497 1002.28 479.124 998.799 477.527V455.874C1004.65 458.365 1011.19 460.633 1018.42 462.677C1025.65 464.657 1033.01 465.647 1040.5 465.647C1046.61 465.647 1051.67 464.88 1055.68 463.347C1059.76 461.75 1062.78 459.515 1064.75 456.641C1066.73 453.703 1067.71 450.285 1067.71 446.389C1067.71 442.238 1066.56 438.725 1064.26 435.85C1061.96 432.976 1058.48 430.357 1053.81 427.994C1049.21 425.567 1043.43 422.98 1036.46 420.234C1031.73 418.381 1027.19 416.273 1022.85 413.91C1018.58 411.547 1014.77 408.768 1011.42 405.575C1008.07 402.381 1005.4 398.613 1003.43 394.269C1001.53 389.862 1000.57 384.689 1000.57 378.749C1000.57 370.828 1002.51 364.058 1006.39 358.437C1010.33 352.816 1015.85 348.505 1022.95 345.503C1030.12 342.501 1038.46 341 1047.99 341C1055.55 341 1062.65 341.766 1069.29 343.299C1075.99 344.832 1082.57 347.004 1089.01 349.814L1081.51 368.305C1075.6 365.942 1069.85 364.058 1064.26 362.653C1058.74 361.248 1053.09 360.545 1047.3 360.545C1042.31 360.545 1038.07 361.279 1034.59 362.749C1031.1 364.218 1028.44 366.293 1026.6 368.976C1024.83 371.595 1023.94 374.725 1023.94 378.365C1023.94 382.453 1024.96 385.902 1027 388.713C1029.1 391.459 1032.32 393.982 1036.66 396.281C1041.06 398.581 1046.71 401.136 1053.61 403.946C1061.57 407.14 1068.3 410.493 1073.82 414.006C1079.41 417.519 1083.68 421.735 1086.64 426.653C1089.6 431.507 1091.08 437.607 1091.08 444.952Z" fill="#F9F9FC"/>
</g>
<path d="M175.573 630C186.855 630 196 639.145 196 650.427V777.573C196 788.855 186.855 798 175.573 798H48.4268C37.1455 798 28.0002 788.855 28 777.573V650.427C28.0002 639.145 37.1455 630 48.4268 630H175.573Z" stroke="#F9F9FC" stroke-width="8"/>
<path d="M159.858 648.769C161.217 648.769 162.32 649.871 162.32 651.231V663.539H174.559C175.956 663.539 177.089 664.641 177.089 666V670.923C177.089 672.283 175.956 673.384 174.559 673.384H162.32V685.692C162.32 687.051 161.217 688.154 159.858 688.154H154.935C153.575 688.154 152.474 687.051 152.474 685.692V673.384H139.145C137.748 673.384 136.616 672.283 136.615 670.923V666C136.615 664.641 137.748 663.539 139.145 663.539H152.474V651.231C152.474 649.872 153.575 648.769 154.935 648.769H159.858Z" fill="#F9F9FC"/>
<path d="M599.573 630C610.855 630 620 639.145 620 650.427V777.573C620 788.855 610.855 798 599.573 798H472.427C461.146 798 452 788.855 452 777.573V650.427C452 639.145 461.146 630 472.427 630H599.573Z" stroke="#F9F9FC" stroke-width="8"/>
<path d="M583.858 648.769C585.217 648.769 586.32 649.871 586.32 651.231V663.539H598.559C599.956 663.539 601.089 664.641 601.089 666V670.923C601.089 672.283 599.956 673.384 598.559 673.384H586.32V685.692C586.32 687.051 585.217 688.154 583.858 688.154H578.935C577.576 688.154 576.474 687.051 576.474 685.692V673.384H563.145C561.748 673.384 560.616 672.283 560.616 670.923V666C560.616 664.641 561.748 663.539 563.145 663.539H576.474V651.231C576.474 649.872 577.576 648.769 578.935 648.769H583.858Z" fill="#F9F9FC"/>
<g clip-path="url(#clip4_11_325)">
<path d="M689.9 644.012C708.5 644.012 722.072 647.717 730.617 655.126C739.161 662.535 743.433 672.914 743.433 686.263C743.433 692.331 742.447 698.112 740.476 703.605C738.57 709.034 735.415 713.856 731.011 718.072C726.608 722.224 720.791 725.513 713.561 727.94C706.397 730.367 697.557 731.581 687.041 731.581H671.661V784.084H648V644.012H689.9ZM688.323 663.078H671.661V712.419H684.576C692.003 712.419 698.313 711.589 703.505 709.928C708.697 708.204 712.641 705.489 715.336 701.784C718.03 698.08 719.378 693.194 719.378 687.126C719.378 679.014 716.847 672.978 711.787 669.018C706.791 665.058 698.97 663.078 688.323 663.078Z" fill="#F9F9FC"/>
<path d="M764.144 784.084V644.012H787.806V764.539H849.028V784.084H764.144Z" fill="#F9F9FC"/>
<path d="M979.074 644.012V734.647C979.074 744.419 976.938 753.17 972.665 760.898C968.459 768.627 962.084 774.758 953.539 779.293C944.995 783.764 934.249 786 921.301 786C902.832 786 888.767 781.305 879.106 771.916C869.51 762.463 864.712 749.912 864.712 734.263V644.012H888.373V732.251C888.373 743.94 891.199 752.563 896.851 758.12C902.504 763.677 910.949 766.455 922.188 766.455C929.944 766.455 936.254 765.146 941.117 762.527C946.047 759.844 949.662 755.948 951.962 750.838C954.328 745.665 955.511 739.437 955.511 732.156V644.012H979.074Z" fill="#F9F9FC"/>
<path d="M1091.08 745.952C1091.08 754.255 1088.97 761.409 1084.77 767.413C1080.63 773.417 1074.65 778.016 1066.82 781.21C1059.07 784.403 1049.8 786 1039.02 786C1033.76 786 1028.74 785.713 1023.94 785.138C1019.14 784.563 1014.61 783.733 1010.33 782.647C1006.13 781.497 1002.28 780.124 998.799 778.527V756.874C1004.65 759.365 1011.19 761.633 1018.42 763.677C1025.65 765.657 1033.01 766.647 1040.5 766.647C1046.61 766.647 1051.67 765.88 1055.68 764.347C1059.76 762.75 1062.78 760.515 1064.75 757.641C1066.73 754.703 1067.71 751.285 1067.71 747.389C1067.71 743.238 1066.56 739.725 1064.26 736.85C1061.96 733.976 1058.48 731.357 1053.81 728.994C1049.21 726.567 1043.43 723.98 1036.46 721.234C1031.73 719.381 1027.19 717.273 1022.85 714.91C1018.58 712.547 1014.77 709.768 1011.42 706.575C1008.07 703.381 1005.4 699.613 1003.43 695.269C1001.53 690.862 1000.57 685.689 1000.57 679.749C1000.57 671.828 1002.51 665.058 1006.39 659.437C1010.33 653.816 1015.85 649.505 1022.95 646.503C1030.12 643.501 1038.46 642 1047.99 642C1055.55 642 1062.65 642.766 1069.29 644.299C1075.99 645.832 1082.57 648.004 1089.01 650.814L1081.51 669.305C1075.6 666.942 1069.85 665.058 1064.26 663.653C1058.74 662.248 1053.09 661.545 1047.3 661.545C1042.31 661.545 1038.07 662.279 1034.59 663.749C1031.1 665.218 1028.44 667.293 1026.6 669.976C1024.83 672.595 1023.94 675.725 1023.94 679.365C1023.94 683.453 1024.96 686.902 1027 689.713C1029.1 692.459 1032.32 694.982 1036.66 697.281C1041.06 699.581 1046.71 702.136 1053.61 704.946C1061.57 708.14 1068.3 711.493 1073.82 715.006C1079.41 718.519 1083.68 722.735 1086.64 727.653C1089.6 732.507 1091.08 738.607 1091.08 745.952Z" fill="#F9F9FC"/>
</g>
<defs>
<filter id="filter0_f_11_325" x="-44.6836" y="10.5532" width="314.509" height="314.509" filterUnits="userSpaceOnUse" color-interpolation-filters="sRGB">
<feFlood flood-opacity="0" result="BackgroundImageFix"/>
<feBlend mode="normal" in="SourceGraphic" in2="BackgroundImageFix" result="shape"/>
<feGaussianBlur stdDeviation="48" result="effect1_foregroundBlur_11_325"/>
</filter>
<filter id="filter1_f_11_325" x="-44.6836" y="10.5532" width="314.509" height="314.509" filterUnits="userSpaceOnUse" color-interpolation-filters="sRGB">
<feFlood flood-opacity="0" result="BackgroundImageFix"/>
<feBlend mode="normal" in="SourceGraphic" in2="BackgroundImageFix" result="shape"/>
<feGaussianBlur stdDeviation="48" result="effect1_foregroundBlur_11_325"/>
</filter>
<filter id="filter2_f_11_325" x="-111.834" y="-118.456" width="339.264" height="339.264" filterUnits="userSpaceOnUse" color-interpolation-filters="sRGB">
<feFlood flood-opacity="0" result="BackgroundImageFix"/>
<feBlend mode="normal" in="SourceGraphic" in2="BackgroundImageFix" result="shape"/>
<feGaussianBlur stdDeviation="48" result="effect1_foregroundBlur_11_325"/>
</filter>
<filter id="filter3_f_11_325" x="16.4971" y="8.53528" width="329.711" height="329.712" filterUnits="userSpaceOnUse" color-interpolation-filters="sRGB">
<feFlood flood-opacity="0" result="BackgroundImageFix"/>
<feBlend mode="normal" in="SourceGraphic" in2="BackgroundImageFix" result="shape"/>
<feGaussianBlur stdDeviation="48" result="effect1_foregroundBlur_11_325"/>
</filter>
<filter id="filter4_f_11_325" x="-113.64" y="-16.8206" width="357.572" height="357.573" filterUnits="userSpaceOnUse" color-interpolation-filters="sRGB">
<feFlood flood-opacity="0" result="BackgroundImageFix"/>
<feBlend mode="normal" in="SourceGraphic" in2="BackgroundImageFix" result="shape"/>
<feGaussianBlur stdDeviation="48" result="effect1_foregroundBlur_11_325"/>
</filter>
<filter id="filter5_f_11_325" x="7.04175" y="-136.243" width="342.846" height="342.847" filterUnits="userSpaceOnUse" color-interpolation-filters="sRGB">
<feFlood flood-opacity="0" result="BackgroundImageFix"/>
<feBlend mode="normal" in="SourceGraphic" in2="BackgroundImageFix" result="shape"/>
<feGaussianBlur stdDeviation="48" result="effect1_foregroundBlur_11_325"/>
</filter>
<filter id="filter6_f_11_325" x="379.317" y="10.5532" width="314.509" height="314.509" filterUnits="userSpaceOnUse" color-interpolation-filters="sRGB">
<feFlood flood-opacity="0" result="BackgroundImageFix"/>
<feBlend mode="normal" in="SourceGraphic" in2="BackgroundImageFix" result="shape"/>
<feGaussianBlur stdDeviation="48" result="effect1_foregroundBlur_11_325"/>
</filter>
<filter id="filter7_f_11_325" x="379.317" y="10.5532" width="314.509" height="314.509" filterUnits="userSpaceOnUse" color-interpolation-filters="sRGB">
<feFlood flood-opacity="0" result="BackgroundImageFix"/>
<feBlend mode="normal" in="SourceGraphic" in2="BackgroundImageFix" result="shape"/>
<feGaussianBlur stdDeviation="48" result="effect1_foregroundBlur_11_325"/>
</filter>
<filter id="filter8_f_11_325" x="312.166" y="-118.456" width="339.264" height="339.264" filterUnits="userSpaceOnUse" color-interpolation-filters="sRGB">
<feFlood flood-opacity="0" result="BackgroundImageFix"/>
<feBlend mode="normal" in="SourceGraphic" in2="BackgroundImageFix" result="shape"/>
<feGaussianBlur stdDeviation="48" result="effect1_foregroundBlur_11_325"/>
</filter>
<filter id="filter9_f_11_325" x="440.497" y="8.53528" width="329.711" height="329.712" filterUnits="userSpaceOnUse" color-interpolation-filters="sRGB">
<feFlood flood-opacity="0" result="BackgroundImageFix"/>
<feBlend mode="normal" in="SourceGraphic" in2="BackgroundImageFix" result="shape"/>
<feGaussianBlur stdDeviation="48" result="effect1_foregroundBlur_11_325"/>
</filter>
<filter id="filter10_f_11_325" x="310.36" y="-16.8206" width="357.572" height="357.573" filterUnits="userSpaceOnUse" color-interpolation-filters="sRGB">
<feFlood flood-opacity="0" result="BackgroundImageFix"/>
<feBlend mode="normal" in="SourceGraphic" in2="BackgroundImageFix" result="shape"/>
<feGaussianBlur stdDeviation="48" result="effect1_foregroundBlur_11_325"/>
</filter>
<filter id="filter11_f_11_325" x="431.042" y="-136.243" width="342.846" height="342.847" filterUnits="userSpaceOnUse" color-interpolation-filters="sRGB">
<feFlood flood-opacity="0" result="BackgroundImageFix"/>
<feBlend mode="normal" in="SourceGraphic" in2="BackgroundImageFix" result="shape"/>
<feGaussianBlur stdDeviation="48" result="effect1_foregroundBlur_11_325"/>
</filter>
<clipPath id="clip0_11_325">
<rect x="32" y="32" width="160" height="160" rx="16" fill="white"/>
</clipPath>
<clipPath id="clip1_11_325">
<rect x="456" y="32" width="160" height="160" rx="16" fill="white"/>
</clipPath>
<clipPath id="clip2_11_325">
<rect width="443.077" height="160" fill="white" transform="translate(648 32)"/>
</clipPath>
<clipPath id="clip3_11_325">
<rect width="443.077" height="160" fill="white" transform="translate(648 333)"/>
</clipPath>
<clipPath id="clip4_11_325">
<rect width="443.077" height="160" fill="white" transform="translate(648 634)"/>
</clipPath>
</defs>
</svg>
