<svg preserveAspectRatio="none" width="100%" height="100%" overflow="visible" style="display: block;" viewBox="0 0 58 58" fill="none" xmlns="http://www.w3.org/2000/svg">
<g id="Icon">
<circle id="Ellipse 3" cx="29" cy="29" r="29" fill="var(--fill-0, #C05053)"/>
<g id="Frame">
<path id="Vector" d="M40.7735 27.6526C40.9973 27.5539 41.1872 27.3917 41.3197 27.1861C41.4522 26.9806 41.5215 26.7406 41.5189 26.4961C41.5164 26.2515 41.4422 26.013 41.3055 25.8102C41.1687 25.6074 40.9755 25.4492 40.7498 25.3551L30.036 20.4751C29.7103 20.3266 29.3565 20.2497 28.9985 20.2497C28.6405 20.2497 28.2867 20.3266 27.961 20.4751L17.2485 25.3501C17.026 25.4476 16.8367 25.6078 16.7037 25.8112C16.5708 26.0145 16.5 26.2522 16.5 26.4951C16.5 26.7381 16.5708 26.9758 16.7037 27.1791C16.8367 27.3825 17.026 27.5427 17.2485 27.6401L27.961 32.5251C28.2867 32.6737 28.6405 32.7506 28.9985 32.7506C29.3565 32.7506 29.7103 32.6737 30.036 32.5251L40.7735 27.6526Z" stroke="var(--stroke-0, #FFEAEA)" stroke-width="2.5" stroke-linecap="round" stroke-linejoin="round"/>
<path id="Vector_2" d="M41.5 26.5V34" stroke="var(--stroke-0, #FFEAEA)" stroke-width="2.5" stroke-linecap="round" stroke-linejoin="round"/>
<path id="Vector_3" d="M21.5 29.625V34C21.5 34.9946 22.2902 35.9484 23.6967 36.6517C25.1032 37.3549 27.0109 37.75 29 37.75C30.9891 37.75 32.8968 37.3549 34.3033 36.6517C35.7098 35.9484 36.5 34.9946 36.5 34V29.625" stroke="var(--stroke-0, #FFEAEA)" stroke-width="2.5" stroke-linecap="round" stroke-linejoin="round"/>
</g>
</g>
</svg>
