<svg preserveAspectRatio="none" width="100%" height="100%" overflow="visible" style="display: block;" viewBox="0 0 58 58" fill="none" xmlns="http://www.w3.org/2000/svg">
<g id="Icon">
<circle id="Ellipse 3" cx="29" cy="29" r="29" fill="var(--fill-0, #D31998)"/>
<g id="Frame">
<path id="Vector" d="M31.5 27.75C31.5 28.413 31.2366 29.0489 30.7678 29.5178C30.2989 29.9866 29.6631 30.25 29 30.25C28.337 30.25 27.7011 29.9866 27.2322 29.5178C26.7634 29.0489 26.5 28.413 26.5 27.75C26.5 26.4239 27.0268 25.1522 27.9645 24.2145C28.9022 23.2768 30.1739 22.75 31.5 22.75C32.8261 22.75 34.0979 23.2768 35.0355 24.2145C35.9732 25.1522 36.5 26.4239 36.5 27.75C36.5 29.7391 35.7098 31.6468 34.3033 33.0533C32.8968 34.4598 30.9891 35.25 29 35.25C27.0109 35.25 25.1032 34.4598 23.6967 33.0533C22.2902 31.6468 21.5 29.7391 21.5 27.75C21.5 25.0978 22.5536 22.5543 24.4289 20.6789C26.3043 18.8036 28.8479 17.75 31.5 17.75C34.1522 17.75 36.6957 18.8036 38.5711 20.6789C40.4464 22.5543 41.5 25.0978 41.5 27.75C41.5 31.0652 40.1831 34.2446 37.8388 36.5888C35.4946 38.933 32.3152 40.25 29 40.25C25.6848 40.25 22.5054 38.933 20.1612 36.5888C17.817 34.2446 16.5 31.0652 16.5 27.75C16.4954 24.492 17.5579 21.3221 19.525 18.725C19.7165 18.4425 19.9639 18.2023 20.2518 18.019C20.5397 17.8358 20.8621 17.7134 21.1991 17.6594C21.5361 17.6055 21.8806 17.6211 22.2113 17.7054C22.542 17.7896 22.852 17.9407 23.1221 18.1493C23.3922 18.3578 23.6168 18.6195 23.782 18.9182C23.9471 19.2168 24.0494 19.5462 24.0824 19.8858C24.1155 20.2255 24.0787 20.5684 23.9742 20.8933C23.8697 21.2182 23.6999 21.5182 23.475 21.775" stroke="var(--stroke-0, #FFE8F5)" stroke-width="2.5" stroke-linecap="round" stroke-linejoin="round"/>
</g>
</g>
</svg>
