<svg preserveAspectRatio="none" width="100%" height="100%" overflow="visible" style="display: block;" viewBox="0 0 58 58" fill="none" xmlns="http://www.w3.org/2000/svg">
<g id="Icon">
<circle id="Ellipse 3" cx="29" cy="29" r="29" fill="var(--fill-0, #D31998)"/>
<g id="Frame">
<path id="Vector" d="M41.5 29H38.4C37.8537 28.9988 37.3221 29.1766 36.8864 29.5062C36.4507 29.8358 36.135 30.299 35.9875 30.825L33.05 41.275C33.0311 41.3399 32.9916 41.3969 32.9375 41.4375C32.8834 41.4781 32.8176 41.5 32.75 41.5C32.6824 41.5 32.6166 41.4781 32.5625 41.4375C32.5084 41.3969 32.4689 41.3399 32.45 41.275L25.55 16.725C25.5311 16.6601 25.4916 16.6031 25.4375 16.5625C25.3834 16.5219 25.3176 16.5 25.25 16.5C25.1824 16.5 25.1166 16.5219 25.0625 16.5625C25.0084 16.6031 24.9689 16.6601 24.95 16.725L22.0125 27.175C21.8656 27.6989 21.5517 28.1606 21.1186 28.49C20.6854 28.8194 20.1566 28.9984 19.6125 29H16.5" stroke="var(--stroke-0, #FFE8F5)" stroke-width="2.5" stroke-linecap="round" stroke-linejoin="round"/>
</g>
</g>
</svg>
