<svg preserveAspectRatio="none" width="100%" height="100%" overflow="visible" style="display: block;" viewBox="0 0 58 58" fill="none" xmlns="http://www.w3.org/2000/svg">
<g id="Icon">
<circle id="Ellipse 3" cx="29" cy="29" r="29" fill="var(--fill-0, #D31998)"/>
<g id="Frame">
<path id="Vector" d="M40.7735 27.6525C40.9973 27.5538 41.1872 27.3916 41.3197 27.186C41.4522 26.9804 41.5215 26.7405 41.5189 26.4959C41.5164 26.2513 41.4422 26.0129 41.3055 25.8101C41.1687 25.6073 40.9755 25.4491 40.7498 25.355L30.036 20.475C29.7103 20.3264 29.3565 20.2495 28.9985 20.2495C28.6405 20.2495 28.2867 20.3264 27.961 20.475L17.2485 25.35C17.026 25.4475 16.8367 25.6077 16.7037 25.811C16.5708 26.0144 16.5 26.252 16.5 26.495C16.5 26.7379 16.5708 26.9756 16.7037 27.179C16.8367 27.3823 17.026 27.5425 17.2485 27.64L27.961 32.525C28.2867 32.6736 28.6405 32.7504 28.9985 32.7504C29.3565 32.7504 29.7103 32.6736 30.036 32.525L40.7735 27.6525Z" stroke="var(--stroke-0, #FFE8F5)" stroke-width="2.5" stroke-linecap="round" stroke-linejoin="round"/>
<path id="Vector_2" d="M41.5 26.5V34" stroke="var(--stroke-0, #FFE8F5)" stroke-width="2.5" stroke-linecap="round" stroke-linejoin="round"/>
<path id="Vector_3" d="M21.5 29.625V34C21.5 34.9946 22.2902 35.9484 23.6967 36.6517C25.1032 37.3549 27.0109 37.75 29 37.75C30.9891 37.75 32.8968 37.3549 34.3033 36.6517C35.7098 35.9484 36.5 34.9946 36.5 34V29.625" stroke="var(--stroke-0, #FFE8F5)" stroke-width="2.5" stroke-linecap="round" stroke-linejoin="round"/>
</g>
</g>
</svg>
