<svg preserveAspectRatio="none" width="100%" height="100%" overflow="visible" style="display: block;" viewBox="0 0 58 58" fill="none" xmlns="http://www.w3.org/2000/svg">
<g id="Icon">
<circle id="Ellipse 3" cx="29" cy="29" r="29" fill="var(--fill-0, #0080B4)"/>
<g id="Frame">
<path id="Vector" d="M26.5 17.75H19C18.3096 17.75 17.75 18.3096 17.75 19V39C17.75 39.6904 18.3096 40.25 19 40.25H26.5C27.1904 40.25 27.75 39.6904 27.75 39V19C27.75 18.3096 27.1904 17.75 26.5 17.75Z" stroke="var(--stroke-0, white)" stroke-width="2.5" stroke-linecap="round" stroke-linejoin="round"/>
<path id="Vector_2" d="M22.75 17.75V40.25" stroke="var(--stroke-0, white)" stroke-width="2.5" stroke-linecap="round" stroke-linejoin="round"/>
<path id="Vector_3" d="M39.5021 37.625C39.7521 38.25 39.3771 39 38.7521 39.25L36.3771 40.125C35.7521 40.375 35.0021 40 34.7521 39.375L27.8771 20.375C27.6271 19.75 28.0021 19 28.6271 18.75L31.0021 17.875C31.6271 17.625 32.3771 18 32.6271 18.625L39.5021 37.625Z" stroke="var(--stroke-0, white)" stroke-width="2.5" stroke-linecap="round" stroke-linejoin="round"/>
</g>
</g>
</svg>
