<svg preserveAspectRatio="none" width="100%" height="100%" overflow="visible" style="display: block;" viewBox="0 0 58 58" fill="none" xmlns="http://www.w3.org/2000/svg">
<g id="Icon">
<circle id="Ellipse 3" cx="29" cy="29" r="29" fill="var(--fill-0, #A56D1E)"/>
<g id="Frame">
<path id="Vector" d="M19 26.5C19 25.1739 19.5268 23.9021 20.4645 22.9645C21.4021 22.0268 22.6739 21.5 24 21.5H34C35.3261 21.5 36.5979 22.0268 37.5355 22.9645C38.4732 23.9021 39 25.1739 39 26.5V39C39 39.663 38.7366 40.2989 38.2678 40.7678C37.7989 41.2366 37.163 41.5 36.5 41.5H21.5C20.837 41.5 20.2011 41.2366 19.7322 40.7678C19.2634 40.2989 19 39.663 19 39V26.5Z" stroke="var(--stroke-0, white)" stroke-width="2.5" stroke-linecap="round" stroke-linejoin="round"/>
<path id="Vector_2" d="M24 26.5H34" stroke="var(--stroke-0, white)" stroke-width="2.5" stroke-linecap="round" stroke-linejoin="round"/>
<path id="Vector_3" d="M24 36.5H34" stroke="var(--stroke-0, white)" stroke-width="2.5" stroke-linecap="round" stroke-linejoin="round"/>
<path id="Vector_4" d="M24 41.5V34C24 33.337 24.2634 32.7011 24.7322 32.2322C25.2011 31.7634 25.837 31.5 26.5 31.5H31.5C32.163 31.5 32.7989 31.7634 33.2678 32.2322C33.7366 32.7011 34 33.337 34 34V41.5" stroke="var(--stroke-0, white)" stroke-width="2.5" stroke-linecap="round" stroke-linejoin="round"/>
<path id="Vector_5" d="M25.25 21.5V19C25.25 18.337 25.5134 17.7011 25.9822 17.2322C26.4511 16.7634 27.087 16.5 27.75 16.5H30.25C30.913 16.5 31.5489 16.7634 32.0178 17.2322C32.4866 17.7011 32.75 18.337 32.75 19V21.5" stroke="var(--stroke-0, white)" stroke-width="2.5" stroke-linecap="round" stroke-linejoin="round"/>
</g>
</g>
</svg>
