<svg preserveAspectRatio="none" width="100%" height="100%" overflow="visible" style="display: block;" viewBox="0 0 58 58" fill="none" xmlns="http://www.w3.org/2000/svg">
<g id="Icon">
<circle id="Ellipse 3" cx="29" cy="29" r="29" fill="var(--fill-0, #A56D1E)"/>
<g id="Frame">
<path id="Vector" d="M34 40.25V37.75C34 36.4239 33.4732 35.1521 32.5355 34.2145C31.5979 33.2768 30.3261 32.75 29 32.75H21.5C20.1739 32.75 18.9021 33.2768 17.9645 34.2145C17.0268 35.1521 16.5 36.4239 16.5 37.75V40.25" stroke="var(--stroke-0, white)" stroke-width="2.5" stroke-linecap="round" stroke-linejoin="round"/>
<path id="Vector_2" d="M34 17.9099C35.0722 18.1879 36.0217 18.814 36.6996 19.69C37.3775 20.566 37.7452 21.6423 37.7452 22.7499C37.7452 23.8576 37.3775 24.9338 36.6996 25.8098C36.0217 26.6858 35.0722 27.3119 34 27.5899" stroke="var(--stroke-0, white)" stroke-width="2.5" stroke-linecap="round" stroke-linejoin="round"/>
<path id="Vector_3" d="M41.5 40.2499V37.7499C41.4992 36.642 41.1304 35.5658 40.4517 34.6902C39.773 33.8147 38.8227 33.1893 37.75 32.9124" stroke="var(--stroke-0, white)" stroke-width="2.5" stroke-linecap="round" stroke-linejoin="round"/>
<path id="Vector_4" d="M25.25 27.75C28.0114 27.75 30.25 25.5114 30.25 22.75C30.25 19.9886 28.0114 17.75 25.25 17.75C22.4886 17.75 20.25 19.9886 20.25 22.75C20.25 25.5114 22.4886 27.75 25.25 27.75Z" stroke="var(--stroke-0, white)" stroke-width="2.5" stroke-linecap="round" stroke-linejoin="round"/>
</g>
</g>
</svg>
