<svg preserveAspectRatio="none" width="100%" height="100%" overflow="visible" style="display: block;" viewBox="0 0 27.5544 27.5544" fill="none" xmlns="http://www.w3.org/2000/svg">
<g id="Frame">
<path id="Vector" d="M12.6478 3.23076C12.697 2.96739 12.8367 2.72951 13.0429 2.55834C13.249 2.38716 13.5085 2.29345 13.7764 2.29345C14.0443 2.29345 14.3038 2.38716 14.5099 2.55834C14.716 2.72951 14.8558 2.96739 14.905 3.23076L16.1116 9.61189C16.1973 10.0656 16.4178 10.4829 16.7443 10.8093C17.0707 11.1358 17.488 11.3563 17.9417 11.442L24.3228 12.6486C24.5862 12.6978 24.8241 12.8376 24.9952 13.0437C25.1664 13.2498 25.2601 13.5093 25.2601 13.7772C25.2601 14.0451 25.1664 14.3046 24.9952 14.5107C24.8241 14.7168 24.5862 14.8566 24.3228 14.9058L17.9417 16.1124C17.488 16.1981 17.0707 16.4186 16.7443 16.7451C16.4178 17.0715 16.1973 17.4888 16.1116 17.9425L14.905 24.3236C14.8558 24.587 14.716 24.8249 14.5099 24.9961C14.3038 25.1672 14.0443 25.2609 13.7764 25.2609C13.5085 25.2609 13.249 25.1672 13.0429 24.9961C12.8367 24.8249 12.697 24.587 12.6478 24.3236L11.4411 17.9425C11.3554 17.4888 11.135 17.0715 10.8085 16.7451C10.482 16.4186 10.0647 16.1981 9.61108 16.1124L3.22994 14.9058C2.96657 14.8566 2.7287 14.7168 2.55752 14.5107C2.38634 14.3046 2.29264 14.0451 2.29264 13.7772C2.29264 13.5093 2.38634 13.2498 2.55752 13.0437C2.7287 12.8376 2.96657 12.6978 3.22994 12.6486L9.61108 11.442C10.0647 11.3563 10.482 11.1358 10.8085 10.8093C11.135 10.4829 11.3554 10.0656 11.4411 9.61189L12.6478 3.23076Z" fill="var(--fill-0, white)" stroke="var(--stroke-0, white)" stroke-width="2.2962" stroke-linecap="round" stroke-linejoin="round"/>
</g>
</svg>
