<svg preserveAspectRatio="none" width="100%" height="100%" overflow="visible" style="display: block;" viewBox="0 0 20.6658 20.6658" fill="none" xmlns="http://www.w3.org/2000/svg">
<g id="Frame">
<path id="Vector" d="M9.48475 2.42308C9.52164 2.22555 9.62646 2.04715 9.78104 1.91877C9.93562 1.79038 10.1302 1.72011 10.3312 1.72011C10.5321 1.72011 10.7267 1.79038 10.8813 1.91877C11.0359 2.04715 11.1407 2.22555 11.1776 2.42308L12.0826 7.20893C12.1469 7.54919 12.3122 7.86216 12.5571 8.10701C12.8019 8.35186 13.1149 8.51721 13.4552 8.58149L18.241 9.48648C18.4385 9.52337 18.6169 9.62819 18.7453 9.78277C18.8737 9.93735 18.944 10.132 18.944 10.3329C18.944 10.5339 18.8737 10.7285 18.7453 10.8831C18.6169 11.0376 18.4385 11.1425 18.241 11.1794L13.4552 12.0843C13.1149 12.1486 12.8019 12.314 12.5571 12.5588C12.3122 12.8037 12.1469 13.1166 12.0826 13.4569L11.1776 18.2427C11.1407 18.4403 11.0359 18.6187 10.8813 18.7471C10.7267 18.8754 10.5321 18.9457 10.3312 18.9457C10.1302 18.9457 9.93562 18.8754 9.78104 18.7471C9.62646 18.6187 9.52164 18.4403 9.48475 18.2427L8.57976 13.4569C8.51548 13.1166 8.35013 12.8037 8.10528 12.5588C7.86043 12.314 7.54746 12.1486 7.2072 12.0843L2.42135 11.1794C2.22382 11.1425 2.04542 11.0376 1.91704 10.8831C1.78865 10.7285 1.71838 10.5339 1.71838 10.3329C1.71838 10.132 1.78865 9.93735 1.91704 9.78277C2.04542 9.62819 2.22382 9.52337 2.42135 9.48648L7.2072 8.58149C7.54746 8.51721 7.86043 8.35186 8.10528 8.10701C8.35013 7.86216 8.51548 7.54919 8.57976 7.20893L9.48475 2.42308Z" fill="var(--fill-0, white)" stroke="var(--stroke-0, white)" stroke-width="1.72215" stroke-linecap="round" stroke-linejoin="round"/>
</g>
</svg>
