<svg preserveAspectRatio="none" width="100%" height="100%" overflow="visible" style="display: block;" viewBox="0 0 58 58" fill="none" xmlns="http://www.w3.org/2000/svg">
<g id="Icon">
<circle id="Ellipse 4" cx="29" cy="29" r="29" fill="var(--fill-0, #D31998)"/>
<g id="Frame">
<path id="Vector" d="M27.7694 17.5174C27.8229 17.2307 27.9751 16.9717 28.1995 16.7853C28.4239 16.599 28.7064 16.4969 28.9981 16.4969C29.2898 16.4969 29.5723 16.599 29.7967 16.7853C30.0211 16.9717 30.1733 17.2307 30.2269 17.5174L31.5406 24.4649C31.6339 24.9589 31.874 25.4132 32.2294 25.7687C32.5848 26.1241 33.0392 26.3641 33.5331 26.4574L40.4806 27.7712C40.7674 27.8248 41.0263 27.9769 41.2127 28.2013C41.3991 28.4257 41.5011 28.7082 41.5011 28.9999C41.5011 29.2916 41.3991 29.5742 41.2127 29.7986C41.0263 30.023 40.7674 30.1751 40.4806 30.2287L33.5331 31.5424C33.0392 31.6357 32.5848 31.8758 32.2294 32.2312C31.874 32.5867 31.6339 33.041 31.5406 33.5349L30.2269 40.4824C30.1733 40.7692 30.0211 41.0282 29.7967 41.2145C29.5723 41.4009 29.2898 41.5029 28.9981 41.5029C28.7064 41.5029 28.4239 41.4009 28.1995 41.2145C27.9751 41.0282 27.8229 40.7692 27.7694 40.4824L26.4556 33.5349C26.3623 33.041 26.1223 32.5867 25.7668 32.2312C25.4114 31.8758 24.957 31.6357 24.4631 31.5424L17.5156 30.2287C17.2289 30.1751 16.9699 30.023 16.7835 29.7986C16.5971 29.5742 16.4951 29.2916 16.4951 28.9999C16.4951 28.7082 16.5971 28.4257 16.7835 28.2013C16.9699 27.9769 17.2289 27.8248 17.5156 27.7712L24.4631 26.4574C24.957 26.3641 25.4114 26.1241 25.7668 25.7687C26.1223 25.4132 26.3623 24.9589 26.4556 24.4649L27.7694 17.5174Z" stroke="var(--stroke-0, #FFE1F2)" stroke-width="2.5" stroke-linecap="round" stroke-linejoin="round"/>
<path id="Vector_2" d="M39 16.5V21.5" stroke="var(--stroke-0, #FFE1F2)" stroke-width="2.5" stroke-linecap="round" stroke-linejoin="round"/>
<path id="Vector_3" d="M41.5 19H36.5" stroke="var(--stroke-0, #FFE1F2)" stroke-width="2.5" stroke-linecap="round" stroke-linejoin="round"/>
<path id="Vector_4" d="M19 41.5C20.3807 41.5 21.5 40.3807 21.5 39C21.5 37.6193 20.3807 36.5 19 36.5C17.6193 36.5 16.5 37.6193 16.5 39C16.5 40.3807 17.6193 41.5 19 41.5Z" stroke="var(--stroke-0, #FFE1F2)" stroke-width="2.5" stroke-linecap="round" stroke-linejoin="round"/>
</g>
</g>
</svg>
