<svg preserveAspectRatio="none" width="100%" height="100%" overflow="visible" style="display: block;" viewBox="0 0 18.3696 18.3696" fill="none" xmlns="http://www.w3.org/2000/svg">
<g id="Frame">
<path id="Vector" d="M8.43232 2.15384C8.46511 1.97826 8.55828 1.81968 8.69569 1.70556C8.83309 1.59144 9.00609 1.52897 9.1847 1.52897C9.36332 1.52897 9.53631 1.59144 9.67372 1.70556C9.81113 1.81968 9.9043 1.97826 9.93709 2.15384L10.7415 6.40793C10.7987 6.71038 10.9456 6.98858 11.1633 7.20622C11.3809 7.42386 11.6591 7.57084 11.9616 7.62798L16.2157 8.43241C16.3912 8.46521 16.5498 8.55838 16.6639 8.69578C16.7781 8.83319 16.8405 9.00618 16.8405 9.1848C16.8405 9.36342 16.7781 9.53641 16.6639 9.67382C16.5498 9.81122 16.3912 9.90439 16.2157 9.93719L11.9616 10.7416C11.6591 10.7988 11.3809 10.9457 11.1633 11.1634C10.9456 11.381 10.7987 11.6592 10.7415 11.9617L9.93709 16.2158C9.9043 16.3913 9.81113 16.5499 9.67372 16.664C9.53631 16.7782 9.36332 16.8406 9.1847 16.8406C9.00609 16.8406 8.83309 16.7782 8.69569 16.664C8.55828 16.5499 8.46511 16.3913 8.43232 16.2158L7.62788 11.9617C7.57075 11.6592 7.42377 11.381 7.20612 11.1634C6.98848 10.9457 6.71028 10.7988 6.40783 10.7416L2.15374 9.93719C1.97816 9.90439 1.81958 9.81122 1.70546 9.67382C1.59134 9.53641 1.52887 9.36342 1.52887 9.1848C1.52887 9.00618 1.59134 8.83319 1.70546 8.69578C1.81958 8.55838 1.97816 8.46521 2.15374 8.43241L6.40783 7.62798C6.71028 7.57084 6.98848 7.42386 7.20612 7.20622C7.42377 6.98858 7.57075 6.71038 7.62788 6.40793L8.43232 2.15384Z" fill="var(--fill-0, white)" stroke="var(--stroke-0, white)" stroke-width="2.2962" stroke-linecap="round" stroke-linejoin="round"/>
</g>
</svg>
