<svg preserveAspectRatio="none" width="100%" height="100%" overflow="visible" style="display: block;" viewBox="0 0 27.5544 27.5544" fill="none" xmlns="http://www.w3.org/2000/svg">
<g id="Frame">
<path id="Vector" d="M12.6486 3.23077C12.6978 2.9674 12.8376 2.72953 13.0437 2.55835C13.2498 2.38717 13.5093 2.29347 13.7772 2.29347C14.0451 2.29347 14.3046 2.38717 14.5107 2.55835C14.7168 2.72953 14.8566 2.9674 14.9058 3.23077L16.1124 9.61191C16.1981 10.0656 16.4186 10.4829 16.7451 10.8093C17.0715 11.1358 17.4888 11.3563 17.9425 11.442L24.3236 12.6486C24.587 12.6978 24.8249 12.8376 24.996 13.0437C25.1672 13.2498 25.2609 13.5093 25.2609 13.7772C25.2609 14.0451 25.1672 14.3046 24.996 14.5107C24.8249 14.7168 24.587 14.8566 24.3236 14.9058L17.9425 16.1124C17.4888 16.1981 17.0715 16.4186 16.7451 16.7451C16.4186 17.0715 16.1981 17.4888 16.1124 17.9425L14.9058 24.3237C14.8566 24.587 14.7168 24.8249 14.5107 24.9961C14.3046 25.1673 14.0451 25.261 13.7772 25.261C13.5093 25.261 13.2498 25.1673 13.0437 24.9961C12.8376 24.8249 12.6978 24.587 12.6486 24.3237L11.442 17.9425C11.3563 17.4888 11.1358 17.0715 10.8093 16.7451C10.4828 16.4186 10.0655 16.1981 9.61188 16.1124L3.23074 14.9058C2.96737 14.8566 2.7295 14.7168 2.55832 14.5107C2.38714 14.3046 2.29344 14.0451 2.29344 13.7772C2.29344 13.5093 2.38714 13.2498 2.55832 13.0437C2.7295 12.8376 2.96737 12.6978 3.23074 12.6486L9.61188 11.442C10.0655 11.3563 10.4828 11.1358 10.8093 10.8093C11.1358 10.4829 11.3563 10.0656 11.442 9.61191L12.6486 3.23077Z" fill="var(--fill-0, white)" stroke="var(--stroke-0, white)" stroke-width="2.2962" stroke-linecap="round" stroke-linejoin="round"/>
</g>
</svg>
