<svg preserveAspectRatio="none" width="100%" height="100%" overflow="visible" style="display: block;" viewBox="0 0 58 58" fill="none" xmlns="http://www.w3.org/2000/svg">
<g id="Icon">
<circle id="Ellipse 4" cx="29" cy="29" r="29" fill="var(--fill-0, #D31998)"/>
<g id="Frame">
<path id="Vector" d="M33.3484 30.1124L35.2421 40.7699C35.2633 40.8954 35.2457 41.0243 35.1917 41.1396C35.1376 41.2548 35.0496 41.3507 34.9395 41.4146C34.8295 41.4785 34.7025 41.5072 34.5756 41.497C34.4488 41.4868 34.3281 41.4381 34.2296 41.3574L29.7546 37.9986C29.5386 37.8372 29.2762 37.75 29.0065 37.75C28.7368 37.75 28.4744 37.8372 28.2584 37.9986L23.7759 41.3561C23.6775 41.4367 23.557 41.4853 23.4302 41.4955C23.3035 41.5058 23.1767 41.4771 23.0667 41.4135C22.9567 41.3498 22.8687 41.254 22.8145 41.139C22.7603 41.024 22.7425 40.8953 22.7634 40.7699L24.6559 30.1124" stroke="var(--stroke-0, white)" stroke-width="2.5" stroke-linecap="round" stroke-linejoin="round"/>
<path id="Vector_2" d="M29 31.5C33.1421 31.5 36.5 28.1421 36.5 24C36.5 19.8579 33.1421 16.5 29 16.5C24.8579 16.5 21.5 19.8579 21.5 24C21.5 28.1421 24.8579 31.5 29 31.5Z" stroke="var(--stroke-0, white)" stroke-width="2.5" stroke-linecap="round" stroke-linejoin="round"/>
</g>
</g>
</svg>
