<svg preserveAspectRatio="none" width="100%" height="100%" overflow="visible" style="display: block;" viewBox="0 0 16.0734 16.0734" fill="none" xmlns="http://www.w3.org/2000/svg">
<g id="Frame">
<path id="Vector" d="M7.37789 1.88464C7.40659 1.731 7.48811 1.59224 7.60834 1.49239C7.72858 1.39254 7.87994 1.33788 8.03623 1.33788C8.19252 1.33788 8.34389 1.39254 8.46412 1.49239C8.58435 1.59224 8.66588 1.731 8.69457 1.88464L9.39845 5.60697C9.44845 5.87161 9.57705 6.11503 9.76749 6.30547C9.95793 6.49591 10.2014 6.62451 10.466 6.67451L14.1883 7.37839C14.342 7.40708 14.4807 7.48861 14.5806 7.60884C14.6804 7.72907 14.7351 7.88044 14.7351 8.03673C14.7351 8.19302 14.6804 8.34438 14.5806 8.46462C14.4807 8.58485 14.342 8.66637 14.1883 8.69507L10.466 9.39895C10.2014 9.44894 9.95793 9.57755 9.76749 9.76798C9.57705 9.95842 9.44845 10.2018 9.39845 10.4665L8.69457 14.1888C8.66588 14.3424 8.58435 14.4812 8.46412 14.5811C8.34389 14.6809 8.19252 14.7356 8.03623 14.7356C7.87994 14.7356 7.72858 14.6809 7.60834 14.5811C7.48811 14.4812 7.40659 14.3424 7.37789 14.1888L6.67401 10.4665C6.62402 10.2018 6.49541 9.95842 6.30498 9.76798C6.11454 9.57755 5.87111 9.44894 5.60647 9.39895L1.88414 8.69507C1.73051 8.66637 1.59175 8.58485 1.4919 8.46462C1.39204 8.34438 1.33738 8.19302 1.33738 8.03673C1.33738 7.88044 1.39204 7.72907 1.4919 7.60884C1.59175 7.48861 1.73051 7.40708 1.88414 7.37839L5.60647 6.67451C5.87111 6.62451 6.11454 6.49591 6.30498 6.30547C6.49541 6.11503 6.62402 5.87161 6.67401 5.60697L7.37789 1.88464Z" fill="var(--fill-0, white)" stroke="var(--stroke-0, white)" stroke-width="2.00917" stroke-linecap="round" stroke-linejoin="round"/>
</g>
</svg>
